<svg xmlns="http://www.w3.org/2000/svg" viewBox="0 0 64 64" role="img" aria-label="ServicePoint logo">
  <defs>
    <linearGradient id="spGradient" x1="8" y1="8" x2="56" y2="56" gradientUnits="userSpaceOnUse">
      <stop offset="0" stop-color="#3b82f6" />
      <stop offset="1" stop-color="#1e40af" />
    </linearGradient>
  </defs>
  <rect x="4" y="4" width="56" height="56" rx="16" fill="url(#spGradient)" />
  <path d="M19 41.5c3.1 3 7.3 4.5 12.7 4.5 7.8 0 12.3-3.3 12.3-8.3 0-4.4-3-6.8-10-8.1l-3.4-.6c-3.8-.7-5.3-1.6-5.3-3.6 0-2.2 2.2-3.7 5.8-3.7 3.3 0 6 .9 8.4 2.8l4.3-5.2c-2.9-2.6-6.9-4-12.2-4-7.5 0-12 3.4-12 8.4 0 4.7 3.1 7.2 9.8 8.4l3.6.6c4 .7 5.5 1.6 5.5 3.5 0 2.4-2.4 4-6.4 4-4.1 0-7.5-1.2-10.2-3.5L19 41.5zm28.6 5.5h-7.8V17h8.4c8.6 0 13.5 4.2 13.5 11.3 0 7.3-5.2 11.9-14.1 11.9h-0.0V47z" fill="#fff" opacity="0.98"/>
</svg>